<mxfile host="app.diagrams.net" agent="Mozilla/5.0 (Windows NT 10.0; Win64; x64) AppleWebKit/537.36 (KHTML, like Gecko) Chrome/136.0.0.0 Safari/537.36 Edg/136.0.0.0" version="26.3.0">
  <diagram id="C5RBs43oDa-KdzZeNtuy" name="Page-1">
    <mxGraphModel dx="1034" dy="618" grid="1" gridSize="10" guides="1" tooltips="1" connect="1" arrows="1" fold="1" page="1" pageScale="1" pageWidth="827" pageHeight="1169" math="0" shadow="0">
      <root>
        <mxCell id="WIyWlLk6GJQsqaUBKTNV-0" />
        <mxCell id="WIyWlLk6GJQsqaUBKTNV-1" parent="WIyWlLk6GJQsqaUBKTNV-0" />
        <mxCell id="qdwt-YacxG2vdlfpTA3x-0" value="" style="shape=cube;whiteSpace=wrap;html=1;boundedLbl=1;backgroundOutline=1;darkOpacity=0.05;darkOpacity2=0.1;" vertex="1" parent="WIyWlLk6GJQsqaUBKTNV-1">
          <mxGeometry x="200" y="210" width="310" height="160" as="geometry" />
        </mxCell>
        <mxCell id="qdwt-YacxG2vdlfpTA3x-4" value="" style="shape=table;startSize=0;container=1;collapsible=0;childLayout=tableLayout;fontSize=16;rounded=0;shadow=1;swimlaneFillColor=default;fillColor=#dae8fc;strokeColor=#6c8ebf;" vertex="1" parent="WIyWlLk6GJQsqaUBKTNV-1">
          <mxGeometry x="220" y="230" width="290" height="140" as="geometry" />
        </mxCell>
        <mxCell id="qdwt-YacxG2vdlfpTA3x-52" style="shape=tableRow;horizontal=0;startSize=0;swimlaneHead=0;swimlaneBody=0;strokeColor=inherit;top=0;left=0;bottom=0;right=0;collapsible=0;dropTarget=0;fillColor=none;points=[[0,0.5],[1,0.5]];portConstraint=eastwest;fontSize=16;" vertex="1" parent="qdwt-YacxG2vdlfpTA3x-4">
          <mxGeometry width="290" height="29" as="geometry" />
        </mxCell>
        <mxCell id="qdwt-YacxG2vdlfpTA3x-53" style="shape=partialRectangle;html=1;whiteSpace=wrap;connectable=0;strokeColor=#82b366;overflow=hidden;fillColor=#d5e8d4;top=0;left=0;bottom=0;right=0;pointerEvents=1;fontSize=16;" vertex="1" parent="qdwt-YacxG2vdlfpTA3x-52">
          <mxGeometry width="58" height="29" as="geometry">
            <mxRectangle width="58" height="29" as="alternateBounds" />
          </mxGeometry>
        </mxCell>
        <mxCell id="qdwt-YacxG2vdlfpTA3x-54" style="shape=partialRectangle;html=1;whiteSpace=wrap;connectable=0;strokeColor=inherit;overflow=hidden;fillColor=none;top=0;left=0;bottom=0;right=0;pointerEvents=1;fontSize=16;" vertex="1" parent="qdwt-YacxG2vdlfpTA3x-52">
          <mxGeometry x="58" width="58" height="29" as="geometry">
            <mxRectangle width="58" height="29" as="alternateBounds" />
          </mxGeometry>
        </mxCell>
        <mxCell id="qdwt-YacxG2vdlfpTA3x-55" style="shape=partialRectangle;html=1;whiteSpace=wrap;connectable=0;strokeColor=inherit;overflow=hidden;fillColor=none;top=0;left=0;bottom=0;right=0;pointerEvents=1;fontSize=16;" vertex="1" parent="qdwt-YacxG2vdlfpTA3x-52">
          <mxGeometry x="116" width="58" height="29" as="geometry">
            <mxRectangle width="58" height="29" as="alternateBounds" />
          </mxGeometry>
        </mxCell>
        <mxCell id="qdwt-YacxG2vdlfpTA3x-56" style="shape=partialRectangle;html=1;whiteSpace=wrap;connectable=0;strokeColor=inherit;overflow=hidden;fillColor=none;top=0;left=0;bottom=0;right=0;pointerEvents=1;fontSize=16;" vertex="1" parent="qdwt-YacxG2vdlfpTA3x-52">
          <mxGeometry x="174" width="58" height="29" as="geometry">
            <mxRectangle width="58" height="29" as="alternateBounds" />
          </mxGeometry>
        </mxCell>
        <mxCell id="qdwt-YacxG2vdlfpTA3x-57" style="shape=partialRectangle;html=1;whiteSpace=wrap;connectable=0;strokeColor=inherit;overflow=hidden;fillColor=none;top=0;left=0;bottom=0;right=0;pointerEvents=1;fontSize=16;" vertex="1" parent="qdwt-YacxG2vdlfpTA3x-52">
          <mxGeometry x="232" width="58" height="29" as="geometry">
            <mxRectangle width="58" height="29" as="alternateBounds" />
          </mxGeometry>
        </mxCell>
        <mxCell id="qdwt-YacxG2vdlfpTA3x-46" style="shape=tableRow;horizontal=0;startSize=0;swimlaneHead=0;swimlaneBody=0;strokeColor=inherit;top=0;left=0;bottom=0;right=0;collapsible=0;dropTarget=0;fillColor=none;points=[[0,0.5],[1,0.5]];portConstraint=eastwest;fontSize=16;" vertex="1" parent="qdwt-YacxG2vdlfpTA3x-4">
          <mxGeometry y="29" width="290" height="29" as="geometry" />
        </mxCell>
        <mxCell id="qdwt-YacxG2vdlfpTA3x-47" style="shape=partialRectangle;html=1;whiteSpace=wrap;connectable=0;strokeColor=inherit;overflow=hidden;fillColor=none;top=0;left=0;bottom=0;right=0;pointerEvents=1;fontSize=16;" vertex="1" parent="qdwt-YacxG2vdlfpTA3x-46">
          <mxGeometry width="58" height="29" as="geometry">
            <mxRectangle width="58" height="29" as="alternateBounds" />
          </mxGeometry>
        </mxCell>
        <mxCell id="qdwt-YacxG2vdlfpTA3x-48" style="shape=partialRectangle;html=1;whiteSpace=wrap;connectable=0;strokeColor=inherit;overflow=hidden;fillColor=none;top=0;left=0;bottom=0;right=0;pointerEvents=1;fontSize=16;" vertex="1" parent="qdwt-YacxG2vdlfpTA3x-46">
          <mxGeometry x="58" width="58" height="29" as="geometry">
            <mxRectangle width="58" height="29" as="alternateBounds" />
          </mxGeometry>
        </mxCell>
        <mxCell id="qdwt-YacxG2vdlfpTA3x-49" style="shape=partialRectangle;html=1;whiteSpace=wrap;connectable=0;strokeColor=inherit;overflow=hidden;fillColor=none;top=0;left=0;bottom=0;right=0;pointerEvents=1;fontSize=16;" vertex="1" parent="qdwt-YacxG2vdlfpTA3x-46">
          <mxGeometry x="116" width="58" height="29" as="geometry">
            <mxRectangle width="58" height="29" as="alternateBounds" />
          </mxGeometry>
        </mxCell>
        <mxCell id="qdwt-YacxG2vdlfpTA3x-50" style="shape=partialRectangle;html=1;whiteSpace=wrap;connectable=0;strokeColor=inherit;overflow=hidden;fillColor=none;top=0;left=0;bottom=0;right=0;pointerEvents=1;fontSize=16;" vertex="1" parent="qdwt-YacxG2vdlfpTA3x-46">
          <mxGeometry x="174" width="58" height="29" as="geometry">
            <mxRectangle width="58" height="29" as="alternateBounds" />
          </mxGeometry>
        </mxCell>
        <mxCell id="qdwt-YacxG2vdlfpTA3x-51" style="shape=partialRectangle;html=1;whiteSpace=wrap;connectable=0;strokeColor=inherit;overflow=hidden;fillColor=none;top=0;left=0;bottom=0;right=0;pointerEvents=1;fontSize=16;" vertex="1" parent="qdwt-YacxG2vdlfpTA3x-46">
          <mxGeometry x="232" width="58" height="29" as="geometry">
            <mxRectangle width="58" height="29" as="alternateBounds" />
          </mxGeometry>
        </mxCell>
        <mxCell id="qdwt-YacxG2vdlfpTA3x-5" value="" style="shape=tableRow;horizontal=0;startSize=0;swimlaneHead=0;swimlaneBody=0;strokeColor=inherit;top=0;left=0;bottom=0;right=0;collapsible=0;dropTarget=0;fillColor=none;points=[[0,0.5],[1,0.5]];portConstraint=eastwest;fontSize=16;" vertex="1" parent="qdwt-YacxG2vdlfpTA3x-4">
          <mxGeometry y="58" width="290" height="24" as="geometry" />
        </mxCell>
        <mxCell id="qdwt-YacxG2vdlfpTA3x-43" style="shape=partialRectangle;html=1;whiteSpace=wrap;connectable=0;strokeColor=inherit;overflow=hidden;fillColor=none;top=0;left=0;bottom=0;right=0;pointerEvents=1;fontSize=16;" vertex="1" parent="qdwt-YacxG2vdlfpTA3x-5">
          <mxGeometry width="58" height="24" as="geometry">
            <mxRectangle width="58" height="24" as="alternateBounds" />
          </mxGeometry>
        </mxCell>
        <mxCell id="qdwt-YacxG2vdlfpTA3x-6" value="" style="shape=partialRectangle;html=1;whiteSpace=wrap;connectable=0;strokeColor=inherit;overflow=hidden;fillColor=none;top=0;left=0;bottom=0;right=0;pointerEvents=1;fontSize=16;" vertex="1" parent="qdwt-YacxG2vdlfpTA3x-5">
          <mxGeometry x="58" width="58" height="24" as="geometry">
            <mxRectangle width="58" height="24" as="alternateBounds" />
          </mxGeometry>
        </mxCell>
        <mxCell id="qdwt-YacxG2vdlfpTA3x-7" value="" style="shape=partialRectangle;html=1;whiteSpace=wrap;connectable=0;strokeColor=inherit;overflow=hidden;fillColor=none;top=0;left=0;bottom=0;right=0;pointerEvents=1;fontSize=16;" vertex="1" parent="qdwt-YacxG2vdlfpTA3x-5">
          <mxGeometry x="116" width="58" height="24" as="geometry">
            <mxRectangle width="58" height="24" as="alternateBounds" />
          </mxGeometry>
        </mxCell>
        <mxCell id="qdwt-YacxG2vdlfpTA3x-8" value="" style="shape=partialRectangle;html=1;whiteSpace=wrap;connectable=0;strokeColor=inherit;overflow=hidden;fillColor=none;top=0;left=0;bottom=0;right=0;pointerEvents=1;fontSize=16;" vertex="1" parent="qdwt-YacxG2vdlfpTA3x-5">
          <mxGeometry x="174" width="58" height="24" as="geometry">
            <mxRectangle width="58" height="24" as="alternateBounds" />
          </mxGeometry>
        </mxCell>
        <mxCell id="qdwt-YacxG2vdlfpTA3x-40" style="shape=partialRectangle;html=1;whiteSpace=wrap;connectable=0;strokeColor=inherit;overflow=hidden;fillColor=none;top=0;left=0;bottom=0;right=0;pointerEvents=1;fontSize=16;" vertex="1" parent="qdwt-YacxG2vdlfpTA3x-5">
          <mxGeometry x="232" width="58" height="24" as="geometry">
            <mxRectangle width="58" height="24" as="alternateBounds" />
          </mxGeometry>
        </mxCell>
        <mxCell id="qdwt-YacxG2vdlfpTA3x-9" value="" style="shape=tableRow;horizontal=0;startSize=0;swimlaneHead=0;swimlaneBody=0;strokeColor=inherit;top=0;left=0;bottom=0;right=0;collapsible=0;dropTarget=0;fillColor=none;points=[[0,0.5],[1,0.5]];portConstraint=eastwest;fontSize=16;" vertex="1" parent="qdwt-YacxG2vdlfpTA3x-4">
          <mxGeometry y="82" width="290" height="29" as="geometry" />
        </mxCell>
        <mxCell id="qdwt-YacxG2vdlfpTA3x-44" style="shape=partialRectangle;html=1;whiteSpace=wrap;connectable=0;strokeColor=inherit;overflow=hidden;fillColor=none;top=0;left=0;bottom=0;right=0;pointerEvents=1;fontSize=16;" vertex="1" parent="qdwt-YacxG2vdlfpTA3x-9">
          <mxGeometry width="58" height="29" as="geometry">
            <mxRectangle width="58" height="29" as="alternateBounds" />
          </mxGeometry>
        </mxCell>
        <mxCell id="qdwt-YacxG2vdlfpTA3x-10" value="" style="shape=partialRectangle;html=1;whiteSpace=wrap;connectable=0;strokeColor=inherit;overflow=hidden;fillColor=none;top=0;left=0;bottom=0;right=0;pointerEvents=1;fontSize=16;" vertex="1" parent="qdwt-YacxG2vdlfpTA3x-9">
          <mxGeometry x="58" width="58" height="29" as="geometry">
            <mxRectangle width="58" height="29" as="alternateBounds" />
          </mxGeometry>
        </mxCell>
        <mxCell id="qdwt-YacxG2vdlfpTA3x-11" value="" style="shape=partialRectangle;html=1;whiteSpace=wrap;connectable=0;strokeColor=inherit;overflow=hidden;fillColor=none;top=0;left=0;bottom=0;right=0;pointerEvents=1;fontSize=16;" vertex="1" parent="qdwt-YacxG2vdlfpTA3x-9">
          <mxGeometry x="116" width="58" height="29" as="geometry">
            <mxRectangle width="58" height="29" as="alternateBounds" />
          </mxGeometry>
        </mxCell>
        <mxCell id="qdwt-YacxG2vdlfpTA3x-12" value="" style="shape=partialRectangle;html=1;whiteSpace=wrap;connectable=0;strokeColor=inherit;overflow=hidden;fillColor=none;top=0;left=0;bottom=0;right=0;pointerEvents=1;fontSize=16;" vertex="1" parent="qdwt-YacxG2vdlfpTA3x-9">
          <mxGeometry x="174" width="58" height="29" as="geometry">
            <mxRectangle width="58" height="29" as="alternateBounds" />
          </mxGeometry>
        </mxCell>
        <mxCell id="qdwt-YacxG2vdlfpTA3x-41" style="shape=partialRectangle;html=1;whiteSpace=wrap;connectable=0;strokeColor=inherit;overflow=hidden;fillColor=none;top=0;left=0;bottom=0;right=0;pointerEvents=1;fontSize=16;" vertex="1" parent="qdwt-YacxG2vdlfpTA3x-9">
          <mxGeometry x="232" width="58" height="29" as="geometry">
            <mxRectangle width="58" height="29" as="alternateBounds" />
          </mxGeometry>
        </mxCell>
        <mxCell id="qdwt-YacxG2vdlfpTA3x-13" value="" style="shape=tableRow;horizontal=0;startSize=0;swimlaneHead=0;swimlaneBody=0;strokeColor=inherit;top=0;left=0;bottom=0;right=0;collapsible=0;dropTarget=0;fillColor=none;points=[[0,0.5],[1,0.5]];portConstraint=eastwest;fontSize=16;" vertex="1" parent="qdwt-YacxG2vdlfpTA3x-4">
          <mxGeometry y="111" width="290" height="29" as="geometry" />
        </mxCell>
        <mxCell id="qdwt-YacxG2vdlfpTA3x-45" style="shape=partialRectangle;html=1;whiteSpace=wrap;connectable=0;strokeColor=inherit;overflow=hidden;fillColor=none;top=0;left=0;bottom=0;right=0;pointerEvents=1;fontSize=16;" vertex="1" parent="qdwt-YacxG2vdlfpTA3x-13">
          <mxGeometry width="58" height="29" as="geometry">
            <mxRectangle width="58" height="29" as="alternateBounds" />
          </mxGeometry>
        </mxCell>
        <mxCell id="qdwt-YacxG2vdlfpTA3x-14" value="" style="shape=partialRectangle;html=1;whiteSpace=wrap;connectable=0;strokeColor=inherit;overflow=hidden;fillColor=none;top=0;left=0;bottom=0;right=0;pointerEvents=1;fontSize=16;" vertex="1" parent="qdwt-YacxG2vdlfpTA3x-13">
          <mxGeometry x="58" width="58" height="29" as="geometry">
            <mxRectangle width="58" height="29" as="alternateBounds" />
          </mxGeometry>
        </mxCell>
        <mxCell id="qdwt-YacxG2vdlfpTA3x-15" value="" style="shape=partialRectangle;html=1;whiteSpace=wrap;connectable=0;strokeColor=inherit;overflow=hidden;fillColor=none;top=0;left=0;bottom=0;right=0;pointerEvents=1;fontSize=16;" vertex="1" parent="qdwt-YacxG2vdlfpTA3x-13">
          <mxGeometry x="116" width="58" height="29" as="geometry">
            <mxRectangle width="58" height="29" as="alternateBounds" />
          </mxGeometry>
        </mxCell>
        <mxCell id="qdwt-YacxG2vdlfpTA3x-16" value="" style="shape=partialRectangle;html=1;whiteSpace=wrap;connectable=0;strokeColor=inherit;overflow=hidden;fillColor=none;top=0;left=0;bottom=0;right=0;pointerEvents=1;fontSize=16;" vertex="1" parent="qdwt-YacxG2vdlfpTA3x-13">
          <mxGeometry x="174" width="58" height="29" as="geometry">
            <mxRectangle width="58" height="29" as="alternateBounds" />
          </mxGeometry>
        </mxCell>
        <mxCell id="qdwt-YacxG2vdlfpTA3x-42" style="shape=partialRectangle;html=1;whiteSpace=wrap;connectable=0;strokeColor=inherit;overflow=hidden;fillColor=none;top=0;left=0;bottom=0;right=0;pointerEvents=1;fontSize=16;" vertex="1" parent="qdwt-YacxG2vdlfpTA3x-13">
          <mxGeometry x="232" width="58" height="29" as="geometry">
            <mxRectangle width="58" height="29" as="alternateBounds" />
          </mxGeometry>
        </mxCell>
      </root>
    </mxGraphModel>
  </diagram>
</mxfile>
